{"title":"Batman: Bad Blood (2016) 1080P WEB-DL DD5 1 H 264","uid":13252576,"size":2985138159,"categoryP":"video","categoryS":"hd___movies","magnet":"?xt=urn:btih:1f9d6c1618f9fbb3b99efd630a99af2da597f712&amp;dn=Batman%3A+Bad+Blood+%282016%29+1080P+WEB-DL+DD5+1+H+264&amp;tr=udp%3A%2F%2Ftracker.leechers-paradise.org%3A6969&amp;tr=udp%3A%2F%2Fzer0day.ch%3A1337&amp;tr=udp%3A%2F%2Fopen.demonii.com%3A1337&amp;tr=udp%3A%2F%2Ftracker.coppersurfer.tk%3A6969&amp;tr=udp%3A%2F%2Fexodus.desync.com%3A6969","seeders":0,"leechers":1,"uploader":"jmanwf","files":2,"time":1453191996,"description":"Bruce Wayne is missing. Alfred covers for him while Nightwing and Robin patrol Gotham City in his stead. And a new player, Batwoman, investigates Batman's disappearance.\r\n\r\n\r\n\r\nVideo\r\nID : 1\r\nFormat : AVC\r\nFormat/Info : Advanced Video Codec\r\nFormat profile :   \r\nFormat settings, CABAC : Yes\r\nFormat settings, ReFrames : 4 frames\r\nCodec ID : V_MPEG4/ISO/AVC\r\nDuration : 1h 12mn\r\nBit rate : 4 985 Kbps\r\nWidth : 1 916 pixels\r\nHeight : 1 076 pixels\r\nDisplay aspect ratio : 16:9\r\nFrame rate mode : Constant\r\nFrame rate : 23.976 fps\r\nColor space : YUV\r\nChroma subsampling : 4:2:0\r\nBit depth : 8 bits\r\nScan type : Progressive\r\nBits/(Pixel*Frame) : 0.101\r\nStream size : 2.53 GiB (91%)\r\nTitle : '\r\n\r\nLanguage : English\r\nDefault : Yes\r\nForced : No\r\nColor primaries : BT.709\r\nTransfer characteristics : BT.709\r\nMatrix coefficients : BT.709\r\n\r\nAudio\r\nID : 2\r\nFormat : AC-3\r\nFormat/Info : Audio Coding 3\r\nMode extension : CM (complete main)\r\nFormat settings, Endianness : Big\r\nCodec ID : A_AC3\r\nDuration : 1h 12mn\r\nBit rate mode : Constant\r\nBit rate : 384 Kbps\r\nChannel(s) : 6 channels\r\nChannel positions : Front: L C R, Side: L R, LFE\r\nSampling rate : 48.0 KHz\r\nBit depth : 16 bits\r\nCompression mode : Lossy\r\nStream size : 200 MiB (7%)\r\nLanguage : English\r\nDefault : Yes\r\nForced : No\r\n\r\nText\r\nID : 3\r\nFormat : UTF-8\r\nCodec ID : S_TEXT/UTF8\r\nCodec ID/Info : UTF-8 Plain Text\r\nLanguage : English\r\nDefault : Yes\r\nForced : No\r\n\r\n\r\n \nhttp://s27.postimg.org/54qeimfcj/image.png\r\n\r\n\r\n \nhttp://s27.postimg.org/r6gosnzub/image.png\r\n\r\n\r\n \nhttp://s27.postimg.org/rupjblyk3/image.png\r\n\r\n\r\n \nhttp://www.imdb.com/title/tt4870838/","torrent":{"xt":"urn:btih:1f9d6c1618f9fbb3b99efd630a99af2da597f712","amp;dn":"Batman%3A+Bad+Blood+%282016%29+1080P+WEB-DL+DD5+1+H+264","amp;tr":["udp%3A%2F%2Ftracker.leechers-paradise.org%3A6969","udp%3A%2F%2Fzer0day.ch%3A1337","udp%3A%2F%2Fopen.demonii.com%3A1337","udp%3A%2F%2Ftracker.coppersurfer.tk%3A6969","udp%3A%2F%2Fexodus.desync.com%3A6969"],"infoHash":"1f9d6c1618f9fbb3b99efd630a99af2da597f712","infoHashBuffer":{"type":"Buffer","data":[31,157,108,22,24,249,251,179,185,158,253,99,10,153,175,45,165,151,247,18]},"announce":[],"urlList":[]}}